<svg xmlns="http://www.w3.org/2000/svg" width="1320" height="760" viewBox="0 0 1320 760">
<rect width="100%" height="100%" fill="#ffffff"/>
<text x="260" y="42" font-family="Arial, sans-serif" font-size="28" font-weight="700" fill="#111827">Precision-recall operating point for final OOD detection</text>
<text x="260" y="72" font-family="Arial, sans-serif" font-size="15" fill="#4b5563">The primary compressed+losses run is the only setting with high attack recall and high attack precision.</text>
<line x1="260" y1="575" x2="1250" y2="575" stroke="#e5e7eb" stroke-width="1"/>
<text x="246" y="580" text-anchor="end" font-family="Arial, sans-serif" font-size="13" fill="#6b7280">0.0</text>
<line x1="260" y1="481" x2="1250" y2="481" stroke="#e5e7eb" stroke-width="1"/>
<text x="246" y="486" text-anchor="end" font-family="Arial, sans-serif" font-size="13" fill="#6b7280">0.2</text>
<line x1="260" y1="387" x2="1250" y2="387" stroke="#e5e7eb" stroke-width="1"/>
<text x="246" y="392" text-anchor="end" font-family="Arial, sans-serif" font-size="13" fill="#6b7280">0.4</text>
<line x1="260" y1="293" x2="1250" y2="293" stroke="#e5e7eb" stroke-width="1"/>
<text x="246" y="298" text-anchor="end" font-family="Arial, sans-serif" font-size="13" fill="#6b7280">0.6</text>
<line x1="260" y1="199" x2="1250" y2="199" stroke="#e5e7eb" stroke-width="1"/>
<text x="246" y="204" text-anchor="end" font-family="Arial, sans-serif" font-size="13" fill="#6b7280">0.8</text>
<line x1="260" y1="105" x2="1250" y2="105" stroke="#e5e7eb" stroke-width="1"/>
<text x="246" y="110" text-anchor="end" font-family="Arial, sans-serif" font-size="13" fill="#6b7280">1.0</text>
<line x1="260" y1="105" x2="260" y2="575" stroke="#9ca3af"/>
<line x1="260" y1="575" x2="1250" y2="575" stroke="#9ca3af"/>
<rect x="260.4" y="105" width="38" height="470" rx="2" fill="#2563eb"/>
<text x="279.4" y="98" text-anchor="middle" font-family="Arial, sans-serif" font-size="11" fill="#111827">1.000</text>
<rect x="304.4" y="117" width="38" height="458" rx="2" fill="#059669"/>
<text x="323.4" y="110" text-anchor="middle" font-family="Arial, sans-serif" font-size="11" fill="#111827">0.975</text>
<rect x="348.4" y="126" width="38" height="449" rx="2" fill="#dc2626"/>
<text x="367.4" y="119" text-anchor="middle" font-family="Arial, sans-serif" font-size="11" fill="#111827">0.955</text>
<rect x="392.4" y="105" width="38" height="470" rx="2" fill="#7c3aed"/>
<text x="411.4" y="98" text-anchor="middle" font-family="Arial, sans-serif" font-size="11" fill="#111827">1.000</text>
<text x="345.4" y="609" text-anchor="middle" font-family="Arial, sans-serif" font-size="14" font-weight="600" fill="#111827">Primary</text>
<text x="345.4" y="630" text-anchor="middle" font-family="Arial, sans-serif" font-size="13" fill="#4b5563">compressed + losses</text>
<rect x="465.2" y="105" width="38" height="470" rx="2" fill="#2563eb"/>
<text x="484.2" y="98" text-anchor="middle" font-family="Arial, sans-serif" font-size="11" fill="#111827">1.000</text>
<rect x="509.2" y="471" width="38" height="104" rx="2" fill="#059669"/>
<text x="528.2" y="464" text-anchor="middle" font-family="Arial, sans-serif" font-size="11" fill="#111827">0.222</text>
<rect x="553.2" y="386" width="38" height="189" rx="2" fill="#dc2626"/>
<text x="572.2" y="379" text-anchor="middle" font-family="Arial, sans-serif" font-size="11" fill="#111827">0.403</text>
<rect x="597.2" y="105" width="38" height="470" rx="2" fill="#7c3aed"/>
<text x="616.2" y="98" text-anchor="middle" font-family="Arial, sans-serif" font-size="11" fill="#111827">1.000</text>
<text x="550.2" y="609" text-anchor="middle" font-family="Arial, sans-serif" font-size="14" font-weight="600" fill="#111827">Primary</text>
<text x="550.2" y="630" text-anchor="middle" font-family="Arial, sans-serif" font-size="13" fill="#4b5563">compressed only</text>
<rect x="670" y="575" width="38" height="0" rx="2" fill="#2563eb"/>
<text x="689" y="568" text-anchor="middle" font-family="Arial, sans-serif" font-size="11" fill="#111827">0.000</text>
<rect x="714" y="575" width="38" height="0" rx="2" fill="#059669"/>
<text x="733" y="568" text-anchor="middle" font-family="Arial, sans-serif" font-size="11" fill="#111827">0.000</text>
<rect x="758" y="413" width="38" height="162" rx="2" fill="#dc2626"/>
<text x="777" y="406" text-anchor="middle" font-family="Arial, sans-serif" font-size="11" fill="#111827">0.344</text>
<rect x="802" y="105" width="38" height="470" rx="2" fill="#7c3aed"/>
<text x="821" y="98" text-anchor="middle" font-family="Arial, sans-serif" font-size="11" fill="#111827">1.000</text>
<text x="755" y="609" text-anchor="middle" font-family="Arial, sans-serif" font-size="14" font-weight="600" fill="#111827">Primary</text>
<text x="755" y="630" text-anchor="middle" font-family="Arial, sans-serif" font-size="13" fill="#4b5563">all compressed features</text>
<rect x="874.8" y="575" width="38" height="0" rx="2" fill="#2563eb"/>
<text x="893.8" y="568" text-anchor="middle" font-family="Arial, sans-serif" font-size="11" fill="#111827">0.000</text>
<rect x="918.8" y="575" width="38" height="0" rx="2" fill="#059669"/>
<text x="937.8" y="568" text-anchor="middle" font-family="Arial, sans-serif" font-size="11" fill="#111827">0.000</text>
<rect x="962.8" y="431" width="38" height="144" rx="2" fill="#dc2626"/>
<text x="981.8" y="424" text-anchor="middle" font-family="Arial, sans-serif" font-size="11" fill="#111827">0.305</text>
<rect x="1006.8" y="181" width="38" height="394" rx="2" fill="#7c3aed"/>
<text x="1025.8" y="174" text-anchor="middle" font-family="Arial, sans-serif" font-size="11" fill="#111827">0.838</text>
<text x="959.8" y="609" text-anchor="middle" font-family="Arial, sans-serif" font-size="14" font-weight="600" fill="#111827">No time adversary</text>
<rect x="1079.6" y="575" width="38" height="0" rx="2" fill="#2563eb"/>
<text x="1098.6" y="568" text-anchor="middle" font-family="Arial, sans-serif" font-size="11" fill="#111827">0.000</text>
<rect x="1123.6" y="575" width="38" height="0" rx="2" fill="#059669"/>
<text x="1142.6" y="568" text-anchor="middle" font-family="Arial, sans-serif" font-size="11" fill="#111827">0.000</text>
<rect x="1167.6" y="413" width="38" height="162" rx="2" fill="#dc2626"/>
<text x="1186.6" y="406" text-anchor="middle" font-family="Arial, sans-serif" font-size="11" fill="#111827">0.344</text>
<rect x="1211.6" y="105" width="38" height="470" rx="2" fill="#7c3aed"/>
<text x="1230.6" y="98" text-anchor="middle" font-family="Arial, sans-serif" font-size="11" fill="#111827">1.000</text>
<text x="1164.6" y="609" text-anchor="middle" font-family="Arial, sans-serif" font-size="14" font-weight="600" fill="#111827">No student loss</text>
<rect x="260" y="696" width="15" height="15" fill="#2563eb"/>
<text x="283" y="709" font-family="Arial, sans-serif" font-size="14" fill="#111827">Attack precision</text>
<rect x="505" y="696" width="15" height="15" fill="#059669"/>
<text x="528" y="709" font-family="Arial, sans-serif" font-size="14" fill="#111827">Attack recall</text>
<rect x="750" y="696" width="15" height="15" fill="#dc2626"/>
<text x="773" y="709" font-family="Arial, sans-serif" font-size="14" fill="#111827">Benign precision</text>
<rect x="995" y="696" width="15" height="15" fill="#7c3aed"/>
<text x="1018" y="709" font-family="Arial, sans-serif" font-size="14" fill="#111827">Benign recall</text>
</svg>