<svg xmlns="http://www.w3.org/2000/svg" width="3.45in" height="2.15in" viewBox="0 0 345 215">
<rect width="345" height="215" fill="#ffffff"/>
<text x="10" y="16" font-family="Arial, sans-serif" font-size="11" font-weight="700" fill="#111827">Final OOD metrics</text>
<text x="10" y="29" font-family="Arial, sans-serif" font-size="7.2" fill="#4b5563">CL main, C comp only, ACF all comp, -T no time, -S no student</text>
<text x="76" y="38" text-anchor="middle" font-family="Arial, sans-serif" font-size="7.5" font-weight="700" fill="#374151">Atk R</text>
<text x="144" y="38" text-anchor="middle" font-family="Arial, sans-serif" font-size="7.5" font-weight="700" fill="#374151">Unseen</text>
<text x="212" y="38" text-anchor="middle" font-family="Arial, sans-serif" font-size="7.5" font-weight="700" fill="#374151">F1</text>
<text x="280" y="38" text-anchor="middle" font-family="Arial, sans-serif" font-size="7.5" font-weight="700" fill="#374151">Spec</text>
<text x="34" y="58" text-anchor="end" font-family="Arial, sans-serif" font-size="9" font-weight="700" fill="#2563eb">CL</text>
<rect x="42" y="42" width="64" height="24" rx="2" fill="#2a67eb" stroke="#e5e7eb" stroke-width="0.6"/>
<text x="74" y="58" text-anchor="middle" font-family="Arial, sans-serif" font-size="8.2" font-weight="700" fill="#ffffff">98</text>
<rect x="110" y="42" width="64" height="24" rx="2" fill="#2a67eb" stroke="#e5e7eb" stroke-width="0.6"/>
<text x="142" y="58" text-anchor="middle" font-family="Arial, sans-serif" font-size="8.2" font-weight="700" fill="#ffffff">98</text>
<rect x="178" y="42" width="64" height="24" rx="2" fill="#2966eb" stroke="#e5e7eb" stroke-width="0.6"/>
<text x="210" y="58" text-anchor="middle" font-family="Arial, sans-serif" font-size="8.2" font-weight="700" fill="#ffffff">98</text>
<rect x="246" y="42" width="64" height="24" rx="2" fill="#2563eb" stroke="#e5e7eb" stroke-width="0.6"/>
<text x="278" y="58" text-anchor="middle" font-family="Arial, sans-serif" font-size="8.2" font-weight="700" fill="#ffffff">100</text>
<text x="34" y="87" text-anchor="end" font-family="Arial, sans-serif" font-size="9" font-weight="700" fill="#f97316">C</text>
<rect x="42" y="71" width="64" height="24" rx="2" fill="#c9d8f8" stroke="#e5e7eb" stroke-width="0.6"/>
<text x="74" y="87" text-anchor="middle" font-family="Arial, sans-serif" font-size="8.2" font-weight="700" fill="#111827">22</text>
<rect x="110" y="71" width="64" height="24" rx="2" fill="#c9d8f8" stroke="#e5e7eb" stroke-width="0.6"/>
<text x="142" y="87" text-anchor="middle" font-family="Arial, sans-serif" font-size="8.2" font-weight="700" fill="#111827">22</text>
<rect x="178" y="71" width="64" height="24" rx="2" fill="#95b3f4" stroke="#e5e7eb" stroke-width="0.6"/>
<text x="210" y="87" text-anchor="middle" font-family="Arial, sans-serif" font-size="8.2" font-weight="700" fill="#111827">47</text>
<rect x="246" y="71" width="64" height="24" rx="2" fill="#2563eb" stroke="#e5e7eb" stroke-width="0.6"/>
<text x="278" y="87" text-anchor="middle" font-family="Arial, sans-serif" font-size="8.2" font-weight="700" fill="#ffffff">100</text>
<text x="34" y="116" text-anchor="end" font-family="Arial, sans-serif" font-size="9" font-weight="700" fill="#16a34a">ACF</text>
<rect x="42" y="100" width="64" height="24" rx="2" fill="#f8fafc" stroke="#e5e7eb" stroke-width="0.6"/>
<text x="74" y="116" text-anchor="middle" font-family="Arial, sans-serif" font-size="8.2" font-weight="700" fill="#111827">0</text>
<rect x="110" y="100" width="64" height="24" rx="2" fill="#f8fafc" stroke="#e5e7eb" stroke-width="0.6"/>
<text x="142" y="116" text-anchor="middle" font-family="Arial, sans-serif" font-size="8.2" font-weight="700" fill="#111827">0</text>
<rect x="178" y="100" width="64" height="24" rx="2" fill="#c2d3f8" stroke="#e5e7eb" stroke-width="0.6"/>
<text x="210" y="116" text-anchor="middle" font-family="Arial, sans-serif" font-size="8.2" font-weight="700" fill="#111827">26</text>
<rect x="246" y="100" width="64" height="24" rx="2" fill="#2563eb" stroke="#e5e7eb" stroke-width="0.6"/>
<text x="278" y="116" text-anchor="middle" font-family="Arial, sans-serif" font-size="8.2" font-weight="700" fill="#ffffff">100</text>
<text x="34" y="145" text-anchor="end" font-family="Arial, sans-serif" font-size="9" font-weight="700" fill="#7c3aed">-T</text>
<rect x="42" y="129" width="64" height="24" rx="2" fill="#f8fafc" stroke="#e5e7eb" stroke-width="0.6"/>
<text x="74" y="145" text-anchor="middle" font-family="Arial, sans-serif" font-size="8.2" font-weight="700" fill="#111827">0</text>
<rect x="110" y="129" width="64" height="24" rx="2" fill="#f8fafc" stroke="#e5e7eb" stroke-width="0.6"/>
<text x="142" y="145" text-anchor="middle" font-family="Arial, sans-serif" font-size="8.2" font-weight="700" fill="#111827">0</text>
<rect x="178" y="129" width="64" height="24" rx="2" fill="#c9d8f8" stroke="#e5e7eb" stroke-width="0.6"/>
<text x="210" y="145" text-anchor="middle" font-family="Arial, sans-serif" font-size="8.2" font-weight="700" fill="#111827">22</text>
<rect x="246" y="129" width="64" height="24" rx="2" fill="#477bee" stroke="#e5e7eb" stroke-width="0.6"/>
<text x="278" y="145" text-anchor="middle" font-family="Arial, sans-serif" font-size="8.2" font-weight="700" fill="#ffffff">84</text>
<text x="34" y="174" text-anchor="end" font-family="Arial, sans-serif" font-size="9" font-weight="700" fill="#dc2626">-S</text>
<rect x="42" y="158" width="64" height="24" rx="2" fill="#f8fafc" stroke="#e5e7eb" stroke-width="0.6"/>
<text x="74" y="174" text-anchor="middle" font-family="Arial, sans-serif" font-size="8.2" font-weight="700" fill="#111827">0</text>
<rect x="110" y="158" width="64" height="24" rx="2" fill="#f8fafc" stroke="#e5e7eb" stroke-width="0.6"/>
<text x="142" y="174" text-anchor="middle" font-family="Arial, sans-serif" font-size="8.2" font-weight="700" fill="#111827">0</text>
<rect x="178" y="158" width="64" height="24" rx="2" fill="#c2d3f8" stroke="#e5e7eb" stroke-width="0.6"/>
<text x="210" y="174" text-anchor="middle" font-family="Arial, sans-serif" font-size="8.2" font-weight="700" fill="#111827">26</text>
<rect x="246" y="158" width="64" height="24" rx="2" fill="#2563eb" stroke="#e5e7eb" stroke-width="0.6"/>
<text x="278" y="174" text-anchor="middle" font-family="Arial, sans-serif" font-size="8.2" font-weight="700" fill="#ffffff">100</text>
<text x="42" y="199" font-family="Arial, sans-serif" font-size="7.2" fill="#6b7280">Cell values are percentages; darker cells indicate higher metric values.</text>
</svg>