<svg xmlns="http://www.w3.org/2000/svg" width="3.45in" height="2.15in" viewBox="0 0 345 215">
<rect width="345" height="215" fill="#ffffff"/>
<text x="10" y="16" font-family="Arial, sans-serif" font-size="11" font-weight="700" fill="#111827">OOD recall-specificity tradeoff</text>
<text x="10" y="29" font-family="Arial, sans-serif" font-size="7.2" fill="#4b5563">CL main, C comp only, ACF all comp, -T no time, -S no student</text>
<line x1="44" y1="34" x2="44" y2="176" stroke="#e5e7eb" stroke-width="0.7"/>
<text x="44" y="191" text-anchor="middle" font-family="Arial, sans-serif" font-size="7" fill="#6b7280">0</text>
<line x1="179" y1="34" x2="179" y2="176" stroke="#e5e7eb" stroke-width="0.7"/>
<text x="179" y="191" text-anchor="middle" font-family="Arial, sans-serif" font-size="7" fill="#6b7280">0.5</text>
<line x1="314" y1="34" x2="314" y2="176" stroke="#e5e7eb" stroke-width="0.7"/>
<text x="314" y="191" text-anchor="middle" font-family="Arial, sans-serif" font-size="7" fill="#6b7280">1</text>
<line x1="44" y1="176" x2="314" y2="176" stroke="#e5e7eb" stroke-width="0.7"/>
<text x="37" y="178.5" text-anchor="end" font-family="Arial, sans-serif" font-size="7" fill="#6b7280">0.8</text>
<line x1="44" y1="105" x2="314" y2="105" stroke="#e5e7eb" stroke-width="0.7"/>
<text x="37" y="107.5" text-anchor="end" font-family="Arial, sans-serif" font-size="7" fill="#6b7280">0.9</text>
<line x1="44" y1="34" x2="314" y2="34" stroke="#e5e7eb" stroke-width="0.7"/>
<text x="37" y="36.5" text-anchor="end" font-family="Arial, sans-serif" font-size="7" fill="#6b7280">1</text>
<line x1="44" y1="34" x2="44" y2="176" stroke="#6b7280" stroke-width="0.8"/>
<line x1="44" y1="176" x2="314" y2="176" stroke="#6b7280" stroke-width="0.8"/>
<circle cx="307" cy="34" r="4.2" fill="#2563eb" stroke="#ffffff" stroke-width="1"/>
<text x="289" y="46" font-family="Arial, sans-serif" font-size="8" font-weight="700" fill="#2563eb">CL</text>
<circle cx="104" cy="34" r="4.2" fill="#f97316" stroke="#ffffff" stroke-width="1"/>
<text x="110" y="29" font-family="Arial, sans-serif" font-size="8" font-weight="700" fill="#f97316">C</text>
<circle cx="44" cy="34" r="4.2" fill="#16a34a" stroke="#ffffff" stroke-width="1"/>
<text x="52" y="47" font-family="Arial, sans-serif" font-size="8" font-weight="700" fill="#16a34a">ACF</text>
<circle cx="44" cy="149" r="4.2" fill="#7c3aed" stroke="#ffffff" stroke-width="1"/>
<text x="52" y="157" font-family="Arial, sans-serif" font-size="8" font-weight="700" fill="#7c3aed">-T</text>
<circle cx="44" cy="34" r="4.2" fill="#dc2626" stroke="#ffffff" stroke-width="1"/>
<text x="52" y="31" font-family="Arial, sans-serif" font-size="8" font-weight="700" fill="#dc2626">-S</text>
<text x="179" y="207" text-anchor="middle" font-family="Arial, sans-serif" font-size="8" fill="#374151">Attack recall</text>
<text x="12" y="86" transform="rotate(-90 12,86)" text-anchor="middle" font-family="Arial, sans-serif" font-size="8" fill="#374151">Benign specificity</text>
</svg>